Coordinates
version=1
nRows=9
nColumns=26
inDegrees=yes

Units are S.I. units (second, meters, Newtons, ...)
Angles are in degrees.

endheader
time	pelvis_tilt	pelvis_list	pelvis_rotation	pelvis_tx	pelvis_ty	pelvis_tz	hip_flexion_r	hip_adduction_r	hip_rotation_r	knee_angle_r	knee_angle_r_beta	ankle_angle_r	subtalar_angle_r	mtp_angle_r	hip_flexion_l	hip_adduction_l	hip_rotation_l	knee_angle_l	knee_angle_l_beta	ankle_angle_l	subtalar_angle_l	mtp_angle_l	lumbar_extension	lumbar_bending	lumbar_rotation
    186.45023590	     -4.41847457	      5.73988042	      4.84465630	      0.41809542	      0.91350915	      0.26266141	    -21.20636772	     -0.56027815	     -0.74780169	     31.48607672	     31.48607672	    -20.52976927	    -15.33481811	      0.00000000	     28.55911385	      9.79773729	      6.35027871	     14.70958260	     14.70958260	      1.92090274	     -3.41471421	      0.00000000	    -11.38232440	    -12.67325123	     12.90582771
    186.46023590	     -3.86554273	      5.32423818	      4.61632027	      0.41812640	      0.91394719	      0.26140267	    -20.24034838	     -0.40439972	     -0.23168303	     37.88408170	     37.88408170	    -20.63285759	    -18.07229077	      0.00000000	     27.06895628	      9.41581337	      6.00327906	     11.95045323	     11.95045323	      2.20710932	     -1.93300329	      0.00000000	    -11.80027456	    -11.67986628	     13.70923818
    186.47023590	     -3.23974519	      4.84916879	      4.47100321	      0.41776286	      0.91368928	      0.26029660	    -19.12784480	     -0.13678945	      0.21307658	     44.50857188	     44.50857188	    -20.87235945	    -20.81021943	      0.00000000	     25.81497307	      9.01055220	      5.51593802	     10.60066846	     10.60066846	      2.37748393	     -0.93175232	      0.00000000	    -12.41061126	    -10.65714083	     14.36830011
    186.48023590	     -2.87933869	      3.94490566	      4.57474367	      0.41675358	      0.91226973	      0.25958278	    -17.44931026	      0.74810849	      0.60313075	     51.23884469	     51.23884469	    -21.36260197	    -23.72761793	      0.00000000	     25.29986319	      8.23820228	      4.79530134	     10.86453155	     10.86453155	      3.08488365	      0.21043758	      0.00000000	    -12.82865327	     -9.25985475	     14.74024475
    186.49023590	     -2.30209371	      3.34417305	      4.74593381	      0.41592990	      0.91026136	      0.25906645	    -15.93428936	      1.24248856	      0.45466600	     57.86411065	     57.86411065	    -21.45415057	    -25.92132992	      0.00000000	     24.37878191	      7.81390385	      4.52376851	     11.59067330	     11.59067330	      3.51644534	      0.61718646	      0.00000000	    -13.53249314	     -8.29526690	     14.86154634
    186.50023590	     -2.01955727	      2.70910728	      5.13776796	      0.41499996	      0.90685127	      0.25847089	    -13.94292970	      1.71917224	     -0.06694588	     64.41122109	     64.41122109	    -21.43845074	    -27.67306579	      0.00000000	     23.90789450	      7.42593446	      4.42258120	     13.19548208	     13.19548208	      3.75431624	      0.53751941	      0.00000000	    -13.88602026	     -7.35604350	     14.63151437
    186.51023590	     -1.86921352	      2.28128849	      5.64219756	      0.41412622	      0.90231710	      0.25767717	    -11.74688748	      1.80914709	     -0.93945540	     70.75754370	     70.75754370	    -20.84559128	    -28.77025269	      0.00000000	     23.50328179	      7.28079765	      4.61458952	     15.20985560	     15.20985560	      3.36906411	      0.15370598	      0.00000000	    -14.09170454	     -6.66892428	     14.29589176
    186.52023590	     -1.29969617	      2.41799659	      6.32377844	      0.41355244	      0.89768142	      0.25664174	    -10.16782613	      1.12811589	     -2.28059214	     76.59140267	     76.59140267	    -20.16473358	    -29.59409026	      0.00000000	     22.65640319	      7.67359937	      4.44728248	     17.78107533	     17.78107533	      1.86688811	     -0.71958557	      0.00000000	    -14.85538634	     -6.57618075	     13.64631110
    186.53023590	     -2.08826067	      2.69180658	      6.98191378	      0.41151935	      0.89074553	      0.25540602	     -6.64101525	     -0.13687693	     -3.50491594	     82.93450404	     82.93450404	    -18.27782969	    -29.00127087	      0.00000000	     23.36532043	      8.59786693	      5.21424832	     20.92688446	     20.92688446	      0.08538125	     -5.20169907	      0.00000000	    -14.21220576	     -6.82642649	     13.13614409
